<svg width="98" height="10" viewBox="0 0 98 10" fill="none" xmlns="http://www.w3.org/2000/svg">
<path d="M4.04836 9H2.80178V2.0371H0.207535V0.970207H6.6426V2.0371H4.04836V9ZM8.64206 9H7.40671V0.970207H8.64206V4.32812H12.584V0.970207H13.8305V9H12.584V5.39502H8.64206V9ZM21.0112 9H15.2163V0.970207H20.8989V2.0371H16.4516V4.31689H20.3486V5.38379H16.4516V7.9331H21.0112V9ZM23.2083 9H21.973V0.970207H27.5433V2.0371H23.2083V4.45166H26.7123V5.51855H23.2083V9ZM29.5702 9H28.3349V0.970207H29.5702V9ZM30.9679 9V0.970207H34.3146C35.1981 0.970207 35.8719 1.17236 36.3361 1.57665C36.8078 1.97346 37.0436 2.54247 37.0436 3.28369C37.0436 3.78531 36.9051 4.21207 36.6281 4.56396C36.351 4.91585 35.9879 5.1442 35.5387 5.24902V5.27148C35.928 5.34635 36.22 5.52978 36.4147 5.82177C36.6168 6.11377 36.7479 6.43571 36.8078 6.7876C36.8751 7.13948 36.9238 7.55127 36.9538 8.02295C36.9762 8.32991 36.9987 8.55078 37.0211 8.68555C37.0436 8.82031 37.0885 8.89893 37.1559 8.92139V9H35.8307C35.7783 8.95508 35.7446 8.87646 35.7296 8.76416C35.7221 8.64437 35.7147 8.44971 35.7072 8.18017C35.6997 7.73096 35.666 7.34912 35.6061 7.03467C35.5537 6.72021 35.4227 6.44694 35.213 6.21484C35.0109 5.97526 34.6964 5.85547 34.2697 5.85547H32.2033V9H30.9679ZM34.0451 4.78857C34.6141 4.78857 35.0483 4.66878 35.3478 4.42919C35.6473 4.18212 35.797 3.83024 35.797 3.37353C35.797 2.9318 35.6585 2.59863 35.3815 2.37402C35.112 2.14941 34.674 2.0371 34.0675 2.0371H32.2033V4.78857H34.0451ZM41.1624 9.15723C40.4811 9.15723 39.8784 9.04492 39.3543 8.82031C38.8302 8.58822 38.4146 8.25879 38.1077 7.83203C37.8082 7.39778 37.6435 6.88493 37.6135 6.29345H38.8938C38.9387 6.86247 39.1409 7.30794 39.5003 7.62988C39.8671 7.94433 40.4099 8.10156 41.1287 8.10156C42.2517 8.10156 42.8133 7.67106 42.8133 6.81006C42.8133 6.48812 42.7309 6.2373 42.5662 6.05761C42.409 5.87793 42.1956 5.74316 41.926 5.65332C41.664 5.56347 41.211 5.43619 40.5672 5.27148C40.0131 5.12174 39.5564 4.972 39.197 4.82226C38.8452 4.67252 38.5457 4.45166 38.2986 4.15966C38.0515 3.86018 37.928 3.4746 37.928 3.00292C37.928 2.31412 38.1788 1.7788 38.6804 1.39697C39.1821 1.00764 39.8671 0.81298 40.7356 0.81298C41.6565 0.81298 42.394 1.03759 42.948 1.48681C43.5095 1.93603 43.8203 2.56119 43.8801 3.3623H42.5999C42.5325 2.86816 42.3491 2.49755 42.0496 2.25048C41.7501 1.99592 41.3159 1.86865 40.7468 1.86865C40.2452 1.86865 39.8634 1.95849 39.6013 2.13818C39.3468 2.31786 39.2195 2.58365 39.2195 2.93554C39.2195 3.22005 39.2981 3.44466 39.4553 3.60937C39.6126 3.77408 39.811 3.90136 40.0506 3.99121C40.2901 4.07356 40.6383 4.17089 41.095 4.2832C41.7763 4.4554 42.3154 4.62011 42.7122 4.77734C43.109 4.93457 43.4384 5.17041 43.7005 5.48486C43.97 5.79183 44.1048 6.2111 44.1048 6.74267C44.1048 7.46891 43.8539 8.0529 43.3523 8.49463C42.8582 8.93636 42.1282 9.15723 41.1624 9.15723ZM47.9016 9H46.655V2.0371H44.0608V0.970207H50.4959V2.0371H47.9016V9ZM54.4719 9H53.2253V2.0371H50.6311V0.970207H57.0661V2.0371H54.4719V9ZM59.0656 9H57.8302V0.970207H59.0656V4.32812H63.0075V0.970207H64.2541V9H63.0075V5.39502H59.0656V9ZM71.4347 9H65.6398V0.970207H71.3224V2.0371H66.8752V4.31689H70.7721V5.38379H66.8752V7.9331H71.4347V9ZM77.6973 9H72.3965V0.970207H73.6319V7.9331H77.6973V9ZM79.0126 9H77.7099L80.6972 0.970207H82.0336L85.0434 9H83.6957L83.0331 7.06836H79.6752L79.0126 9ZM81.3485 2.11572L80.0458 6.02392H82.685L81.371 2.11572H81.3485ZM88.5032 9.15723C87.8219 9.15723 87.2192 9.04492 86.6951 8.82031C86.171 8.58822 85.7555 8.25879 85.4485 7.83203C85.1491 7.39778 84.9843 6.88493 84.9544 6.29345H86.2347C86.2796 6.86247 86.4817 7.30794 86.8411 7.62988C87.208 7.94433 87.7508 8.10156 88.4695 8.10156C89.5926 8.10156 90.1541 7.67106 90.1541 6.81006C90.1541 6.48812 90.0718 6.2373 89.907 6.05761C89.7498 5.87793 89.5364 5.74316 89.2669 5.65332C89.0049 5.56347 88.5519 5.43619 87.908 5.27148C87.354 5.12174 86.8973 4.972 86.5379 4.82226C86.186 4.67252 85.8865 4.45166 85.6395 4.15966C85.3924 3.86018 85.2689 3.4746 85.2689 3.00292C85.2689 2.31412 85.5197 1.7788 86.0213 1.39697C86.5229 1.00764 87.208 0.81298 88.0765 0.81298C88.9974 0.81298 89.7348 1.03759 90.2889 1.48681C90.8504 1.93603 91.1611 2.56119 91.221 3.3623H89.9407C89.8733 2.86816 89.6899 2.49755 89.3904 2.25048C89.091 1.99592 88.6567 1.86865 88.0877 1.86865C87.5861 1.86865 87.2042 1.95849 86.9422 2.13818C86.6876 2.31786 86.5604 2.58365 86.5604 2.93554C86.5604 3.22005 86.639 3.44466 86.7962 3.60937C86.9534 3.77408 87.1518 3.90136 87.3914 3.99121C87.631 4.07356 87.9791 4.17089 88.4358 4.2832C89.1172 4.4554 89.6562 4.62011 90.053 4.77734C90.4498 4.93457 90.7793 5.17041 91.0413 5.48486C91.3109 5.79183 91.4456 6.2111 91.4456 6.74267C91.4456 7.46891 91.1948 8.0529 90.6932 8.49463C90.199 8.93636 89.4691 9.15723 88.5032 9.15723ZM95.2425 9H93.9959V2.0371H91.4017V0.970207H97.8367V2.0371H95.2425V9Z" fill="#EAE8E8"/>
</svg>
